HIERARCHY
ROOT Hips
{
  OFFSET 0.0502701 92.146 0
  CHANNELS 6 Xposition Yposition Zposition Zrotation Xrotation Yrotation
  JOINT Bip01_Pelvis
  {
    OFFSET 0 0 0
    CHANNELS 6 Xposition Yposition Zposition Zrotation Xrotation Yrotation
    JOINT BN_Tai_01
    {
      OFFSET -4.6544 -2.06234 0
      CHANNELS 6 Xposition Yposition Zposition Zrotation Xrotation Yrotation
      JOINT BN_Tai_R_01
      {
        OFFSET 10.2279 -0.119812 3.68897
        CHANNELS 6 Xposition Yposition Zposition Zrotation Xrotation Yrotation
        JOINT BN_Tai_R_02
        {
          OFFSET 15.0421 0 1.52588e-005
          CHANNELS 6 Xposition Yposition Zposition Zrotation Xrotation Yrotation
          End Site
          {
            OFFSET 0 0 0
          }
        }
      }
      JOINT BN_Tai_L_01
      {
        OFFSET 10.2279 -0.119797 -3.68907
        CHANNELS 6 Xposition Yposition Zposition Zrotation Xrotation Yrotation
        JOINT BN_Tai_L_02
        {
          OFFSET 15.0421 0 0
          CHANNELS 6 Xposition Yposition Zposition Zrotation Xrotation Yrotation
          End Site
          {
            OFFSET 0 0 0
          }
        }
      }
    }
    JOINT Bip01_Spine
    {
      OFFSET 2.7319 1.49192 0
      CHANNELS 6 Xposition Yposition Zposition Zrotation Xrotation Yrotation
      JOINT Bip01_R_Thigh
      {
        OFFSET -2.85206 -1.24717 -6.20578
        CHANNELS 6 Xposition Yposition Zposition Zrotation Xrotation Yrotation
        JOINT Bip01_R_Calf
        {
          OFFSET 6.73247 0 0
          CHANNELS 6 Xposition Yposition Zposition Zrotation Xrotation Yrotation
          JOINT Bip01_R_HorseLink
          {
            OFFSET 8.08523 0 0
            CHANNELS 6 Xposition Yposition Zposition Zrotation Xrotation Yrotation
            JOINT Bip01_R_Foot
            {
              OFFSET 8.97518 0 0
              CHANNELS 6 Xposition Yposition Zposition Zrotation Xrotation Yrotation
              JOINT BN_Toe_R_30
              {
                OFFSET 1.58762 -0.234982 -0.295153
                CHANNELS 6 Xposition Yposition Zposition Zrotation Xrotation Yrotation
                JOINT BN_Toe_R_31
                {
                  OFFSET 3.03849 0 0
                  CHANNELS 6 Xposition Yposition Zposition Zrotation Xrotation Yrotation
                  End Site
                  {
                    OFFSET 0 0 0
                  }
                }
              }
              JOINT BN_Toe_R_00
              {
                OFFSET 1.65463 0.933666 1.02414
                CHANNELS 6 Xposition Yposition Zposition Zrotation Xrotation Yrotation
                JOINT BN_Toe_R_01
                {
                  OFFSET 3.51775 0 0
                  CHANNELS 6 Xposition Yposition Zposition Zrotation Xrotation Yrotation
                  End Site
                  {
                    OFFSET 0 0 0
                  }
                }
              }
              JOINT BN_Toe_R_20
              {
                OFFSET 1.47309 1.0106 -1.16708
                CHANNELS 6 Xposition Yposition Zposition Zrotation Xrotation Yrotation
                JOINT BN_Toe_R_21
                {
                  OFFSET 3.94896 0 0
                  CHANNELS 6 Xposition Yposition Zposition Zrotation Xrotation Yrotation
                  End Site
                  {
                    OFFSET 0 0 0
                  }
                }
              }
              JOINT BN_Toe_R_10
              {
                OFFSET 1.07522 1.64225 0.0223596
                CHANNELS 6 Xposition Yposition Zposition Zrotation Xrotation Yrotation
                JOINT BN_Toe_R_11
                {
                  OFFSET 4.09655 0 0
                  CHANNELS 6 Xposition Yposition Zposition Zrotation Xrotation Yrotation
                  End Site
                  {
                    OFFSET 0 0 0
                  }
                }
              }
              JOINT Bip01_R_Toe0
              {
                OFFSET 2.04238 1.88275 0
                CHANNELS 6 Xposition Yposition Zposition Zrotation Xrotation Yrotation
                End Site
                {
                  OFFSET 0 0 0
                }
              }
            }
          }
        }
      }
      JOINT Bip01_L_Thigh
      {
        OFFSET -2.85154 -1.24849 6.20577
        CHANNELS 6 Xposition Yposition Zposition Zrotation Xrotation Yrotation
        JOINT Bip01_L_Calf
        {
          OFFSET 6.73247 0 0
          CHANNELS 6 Xposition Yposition Zposition Zrotation Xrotation Yrotation
          JOINT Bip01_L_HorseLink
          {
            OFFSET 8.08524 0 0
            CHANNELS 6 Xposition Yposition Zposition Zrotation Xrotation Yrotation
            JOINT Bip01_L_Foot
            {
              OFFSET 8.97521 0 0
              CHANNELS 6 Xposition Yposition Zposition Zrotation Xrotation Yrotation
              JOINT BN_Toe_L_00
              {
                OFFSET 1.65461 0.933701 -1.02419
                CHANNELS 6 Xposition Yposition Zposition Zrotation Xrotation Yrotation
                JOINT BN_Toe_L_01
                {
                  OFFSET 3.51778 0 0
                  CHANNELS 6 Xposition Yposition Zposition Zrotation Xrotation Yrotation
                  End Site
                  {
                    OFFSET 0 0 0
                  }
                }
              }
              JOINT BN_Toe_L_10
              {
                OFFSET 1.07523 1.6422 -0.0221281
                CHANNELS 6 Xposition Yposition Zposition Zrotation Xrotation Yrotation
                JOINT BN_Toe_L_11
                {
                  OFFSET 4.09657 0 0
                  CHANNELS 6 Xposition Yposition Zposition Zrotation Xrotation Yrotation
                  End Site
                  {
                    OFFSET 0 0 0
                  }
                }
              }
              JOINT BN_Toe_L_30
              {
                OFFSET 1.58761 -0.234954 0.295135
                CHANNELS 6 Xposition Yposition Zposition Zrotation Xrotation Yrotation
                JOINT BN_Toe_L_31
                {
                  OFFSET 3.03847 0 0
                  CHANNELS 6 Xposition Yposition Zposition Zrotation Xrotation Yrotation
                  End Site
                  {
                    OFFSET 0 0 0
                  }
                }
              }
              JOINT BN_Toe_L_20
              {
                OFFSET 1.4731 1.01055 1.1673
                CHANNELS 6 Xposition Yposition Zposition Zrotation Xrotation Yrotation
                JOINT BN_Toe_L_21
                {
                  OFFSET 3.94897 0 0
                  CHANNELS 6 Xposition Yposition Zposition Zrotation Xrotation Yrotation
                  End Site
                  {
                    OFFSET 0 0 0
                  }
                }
              }
              JOINT Bip01_L_Toe0
              {
                OFFSET 2.04238 1.88276 0
                CHANNELS 6 Xposition Yposition Zposition Zrotation Xrotation Yrotation
                End Site
                {
                  OFFSET 0 0 0
                }
              }
            }
          }
        }
      }
      JOINT Bip01_Spine1
      {
        OFFSET 8.6167 -0.00679016 0
        CHANNELS 6 Xposition Yposition Zposition Zrotation Xrotation Yrotation
        JOINT BN_Wing_R_01
        {
          OFFSET 0.267445 -6.12421 -7.49305
          CHANNELS 6 Xposition Yposition Zposition Zrotation Xrotation Yrotation
          JOINT BN_Wing_R_02
          {
            OFFSET 14.7158 0 0
            CHANNELS 6 Xposition Yposition Zposition Zrotation Xrotation Yrotation
            JOINT BN_Wing_R_03
            {
              OFFSET 19.0858 0 0
              CHANNELS 6 Xposition Yposition Zposition Zrotation Xrotation Yrotation
              JOINT BN_Wing_R_05
              {
                OFFSET 2.68908 -0.270637 0.785261
                CHANNELS 6 Xposition Yposition Zposition Zrotation Xrotation Yrotation
                JOINT BN_Wing_R_06
                {
                  OFFSET 21.1083 0 0
                  CHANNELS 6 Xposition Yposition Zposition Zrotation Xrotation Yrotation
                  End Site
                  {
                    OFFSET 0 0 0
                  }
                }
              }
              JOINT BN_Wing_R_04
              {
                OFFSET 27.642 0 0
                CHANNELS 6 Xposition Yposition Zposition Zrotation Xrotation Yrotation
                End Site
                {
                  OFFSET 0 0 0
                }
              }
            }
          }
        }
        JOINT BN_Wing_L_01
        {
          OFFSET 0.267452 -6.12421 7.49305
          CHANNELS 6 Xposition Yposition Zposition Zrotation Xrotation Yrotation
          JOINT BN_Wing_L_02
          {
            OFFSET 14.7158 0 0
            CHANNELS 6 Xposition Yposition Zposition Zrotation Xrotation Yrotation
            JOINT BN_Wing_L_03
            {
              OFFSET 19.0858 0 0
              CHANNELS 6 Xposition Yposition Zposition Zrotation Xrotation Yrotation
              JOINT BN_Wing_L_05
              {
                OFFSET 2.68908 -0.270635 -0.785254
                CHANNELS 6 Xposition Yposition Zposition Zrotation Xrotation Yrotation
                JOINT BN_Wing_L_06
                {
                  OFFSET 21.1083 0 0
                  CHANNELS 6 Xposition Yposition Zposition Zrotation Xrotation Yrotation
                  End Site
                  {
                    OFFSET 0 0 0
                  }
                }
              }
              JOINT BN_Wing_L_04
              {
                OFFSET 27.642 0 1.14441e-005
                CHANNELS 6 Xposition Yposition Zposition Zrotation Xrotation Yrotation
                End Site
                {
                  OFFSET 0 0 0
                }
              }
            }
          }
        }
        JOINT Bip01_Neck
        {
          OFFSET 7.59958 -1.43237 0
          CHANNELS 6 Xposition Yposition Zposition Zrotation Xrotation Yrotation
          JOINT Bip01_Neck1
          {
            OFFSET 3.64749 -0.00262451 0
            CHANNELS 6 Xposition Yposition Zposition Zrotation Xrotation Yrotation
            JOINT Bip01_Neck2
            {
              OFFSET 3.32331 -0.00284576 0
              CHANNELS 6 Xposition Yposition Zposition Zrotation Xrotation Yrotation
              JOINT Bip01_Head
              {
                OFFSET 4.63256 -0.573471 0
                CHANNELS 6 Xposition Yposition Zposition Zrotation Xrotation Yrotation
                JOINT BN_Jaw
                {
                  OFFSET 1.05386 2.23561 0
                  CHANNELS 6 Xposition Yposition Zposition Zrotation Xrotation Yrotation
                  End Site
                  {
                    OFFSET 0 0 0
                  }
                }
              }
            }
          }
        }
      }
    }
  }
}
MOTION
Frames:	4
Frame Time:	0.0333333
-1.00467 51.9072 5.65886e-006 96.8594 -87.949 133.825 0 0 0 -89.9948 16.13 -89.995 -5.43678 -0.729192 1.44614e-009 -3.22444 0.153152 179.941 10.228 -0.119789 3.6889 22.0349 81.8798 -40.1757 15.0421 -2.38419e-007 1.77636e-014 4.65424 -5.24585 -36.677 10.2278 -0.119778 -3.68915 -126.209 74.6713 109.825 15.0421 0 0 -5.11978 5.35652 -35.9983 2.9576 0.972642 -9.31522e-010 -6.41801 0.248831 1.68478 1.52588e-005 3.8147e-006 -6.20578 -85.5824 -9.75563 -169.507 6.73249 3.8147e-006 2.66454e-015 -99.8207 -1.45063e-006 1.02259e-005 8.08522 3.8147e-006 -6.21725e-015 75.4004 8.2776e-007 3.50231e-007 8.97519 7.62939e-006 9.76996e-015 -4.47988 9.22498 -8.0412 1.58764 -0.234993 -0.295148 152.317 -6.34332 173.565 3.03847 7.6294e-006 1.77636e-015 -72.0002 9.27999e-007 2.43768e-006 1.65462 0.933655 1.02414 44.0973 44.0626 -28.3113 3.51775 -7.78044e-013 -1.52588e-005 -8.19034 1.05548e-005 9.72605e-007 1.4731 1.0106 -1.16707 34.9792 -22.3739 21.2091 3.94897 7.6294e-006 -7.62939e-006 -8.87176 -0.00235192 0.0151299 1.07522 1.64227 0.0223627 24.4062 -4.77974 -4.02065 4.09654 -7.6294e-006 2.38419e-007 2.95823 -0.000338064 -0.00673032 2.04239 1.88274 9.54076e-007 59.0966 -7.02024 9.01207 2.13163e-014 7.6294e-006 6.20577 -69.7216 -1.56778 169.77 6.73249 7.6294e-006 -9.53674e-007 -91.8963 3.07554e-008 -6.94572e-006 8.08521 0 -8.88179e-016 122.35 9.14842e-006 1.48714e-005 8.97519 -7.62939e-006 -3.15303e-014 -69.0161 -11.6558 4.01604 1.65462 0.933723 -1.02418 28.0796 -48.6582 16.6561 3.51775 5.72204e-006 7.62939e-006 -3.62834 -0.00127114 0.0197653 1.07522 1.6422 -0.0221229 23.0742 -1.10972 3.41445 4.09654 3.81469e-006 -1.90735e-006 -0.153876 -1.22435e-006 -4.93866e-007 1.58763 -0.234939 0.295138 161.644 6.16359 -179.872 3.03848 0 5.06262e-014 -61.6342 0.000670406 -0.000350416 1.4731 1.01057 1.1673 27.4808 17.1734 -7.83545 3.94896 -1.90735e-006 -1.77636e-015 -3.06389 -0.000194366 0.00361616 2.04238 1.88279 3.56668e-007 63.6455 11.9486 -9.92183 8.61718 -0.00684357 0 7.34559 7.72361e-006 -1.84418e-005 0.267586 -6.12392 -7.49306 -68.4971 -1.4247 156.211 14.7158 1.52588e-005 -1.90735e-006 35.503 6.30621 4.91962 19.0859 9.53674e-007 1.90735e-006 -16.2923 7.92068 -3.05449 2.68913 -0.270637 0.785278 -50.2299 4.5774 19.3043 21.1082 -7.62939e-006 -1.52588e-005 -1.35297 -2.54644 5.94418 27.6419 -1.52588e-005 7.62939e-006 -2.66123 -0.0626264 14.6112 0.267578 -6.12391 7.49304 -68.4971 1.4247 -156.211 14.7158 1.52588e-005 -5.72204e-006 35.503 -6.30622 -4.91962 19.0859 -5.25801e-013 3.8147e-006 -16.2923 -7.92067 3.05449 2.68911 -0.270645 -0.785271 -50.2299 -4.5774 -19.3042 21.1082 5.61328e-013 -3.8147e-006 -1.35297 2.54644 -5.94418 27.642 -1.22213e-012 1.52588e-005 -2.66124 0.0626257 -14.6112 7.59943 -1.43241 -9.31323e-010 -1.54495 -1.73885 0.29836 3.64921 -0.00225449 -1.86264e-009 6.33132 -0.169108 -1.52385 3.32335 -0.00287628 3.55271e-015 7.86336 -0.171668 3.67559 4.63258 -0.573494 1.81415e-011 -14.6186 0.543755 1.69875 1.0539 2.23561 -1.0856e-009 -100.292 -0.015625 -179.971 
-1.07912 50.0665 5.91047e-006 97.5159 -87.8214 134.31 0 0 0 -89.9949 15.8727 -89.995 -5.4586 -0.692003 5.27168e-009 -2.35156 0.144577 179.919 10.228 -0.119789 3.6889 21.1432 81.872 -40.1846 15.0421 -2.38419e-007 0 4.63085 -5.25159 -36.655 10.2278 -0.119778 -3.68915 -126.545 74.1236 109.159 15.0421 -8.88179e-016 -7.10543e-015 -5.1312 5.3446 -35.9831 2.96194 0.958445 -9.31516e-010 -6.20991 0.268569 1.70292 1.52588e-005 3.8147e-006 -6.20578 -80.4228 -8.72995 -169.184 6.73249 3.8147e-006 6.21725e-015 -91.8666 -1.01105e-006 1.0296e-005 8.08522 3.8147e-006 -9.76996e-015 71.7044 9.63542e-006 3.32301e-006 8.97519 7.62939e-006 8.88179e-015 -4.30356 9.08557 -6.65521 1.58764 -0.234993 -0.295148 150.648 -6.28823 173.814 3.03847 7.6294e-006 0 -71.2637 -8.32204e-006 5.51191e-006 1.65462 0.933655 1.02414 45.6649 43.3474 -29.3442 3.51775 -7.95808e-013 -1.52588e-005 -8.62406 1.0388e-005 2.06036e-006 1.4731 1.0106 -1.16707 34.9257 -22.319 21.1314 3.94897 7.6294e-006 -7.62939e-006 -9.30964 -0.00254203 0.0155664 1.07522 1.64227 0.0223627 25.3798 -4.84421 -3.93269 4.09654 -7.6294e-006 2.38419e-007 1.91012 -0.000169365 -0.0053701 2.04239 1.88274 9.54016e-007 62.1374 -6.11617 8.29519 1.42109e-014 7.6294e-006 6.20577 -69.0073 -2.00678 169.855 6.73249 7.6294e-006 -9.53674e-007 -90.8889 -9.51235e-008 -6.94505e-006 8.08521 7.10543e-015 3.10863e-015 120.11 8.56552e-006 1.523e-005 8.97519 -7.62939e-006 -3.24185e-014 -65.7393 -11.5287 3.72812 1.65462 0.933723 -1.02418 28.4767 -48.5492 16.9184 3.51775 5.72204e-006 7.62939e-006 -3.65538 -0.00112646 0.0173539 1.07522 1.6422 -0.0221229 23.1336 -1.10622 3.41467 4.09653 3.81469e-006 -1.90735e-006 0.368468 -9.85937e-007 3.3753e-005 1.58763 -0.234939 0.295138 160.698 6.11329 -179.793 3.03848 0 4.4853e-014 -61.6786 -2.80903e-006 1.29882e-005 1.4731 1.01057 1.1673 27.5364 17.1655 -7.87214 3.94896 -1.90735e-006 -5.32907e-015 -2.92258 -2.03136e-006 2.39964e-005 2.04238 1.88279 3.56386e-007 63.9027 11.8109 -9.85036 8.61718 -0.00684357 4.44089e-016 6.88458 7.87175e-006 -1.8379e-005 0.267586 -6.12391 -7.49306 -71.1772 1.28997 151.445 14.7158 1.52588e-005 -1.90735e-006 37.2565 6.17524 7.9568 19.0859 9.53674e-007 1.90735e-006 -18.7191 6.19297 4.67337 2.68913 -0.270637 0.785278 -50.6647 5.8158 26.1103 21.1082 -7.62939e-006 -1.52588e-005 -1.34191 -2.50278 14.9065 27.6419 -1.52588e-005 7.62939e-006 -2.64626 -0.0555132 28.7351 0.267583 -6.1239 7.49304 -71.1772 -1.28997 -151.445 14.7158 1.52588e-005 -5.72204e-006 37.2565 -6.17525 -7.9568 19.0859 -5.8975e-013 3.8147e-006 -18.7191 -6.19297 -4.67337 2.68911 -0.270645 -0.785271 -50.6647 -5.8158 -26.1103 21.1082 8.95283e-013 -3.8147e-006 -1.34191 2.50278 -14.9065 27.642 -1.08713e-012 1.52588e-005 -2.64626 0.0555112 -28.7351 7.59943 -1.43241 -9.31322e-010 -1.26652 -1.76289 0.312976 3.64921 -0.00225449 -1.86265e-009 5.41254 -0.146776 -1.54883 3.32335 -0.00287628 4.32987e-015 8.16551 -0.158135 3.72885 4.63258 -0.573494 1.93006e-011 -14.1821 0.557846 1.60498 1.0539 2.23561 -1.09292e-009 -100.269 -0.0147247 -179.971 
-1.15279 48.3805 6.14175e-006 98.0373 -87.6945 134.938 0 0 0 -89.9948 15.6212 -89.995 -5.48001 -0.655537 2.79706e-009 -1.35662 0.136658 179.919 10.228 -0.119789 3.6889 20.5387 81.8554 -40.2104 15.0421 -2.38419e-007 7.10542e-015 4.62989 -5.24843 -36.6039 10.2278 -0.119778 -3.68915 -126.665 73.4889 108.559 15.0421 1.77636e-015 0 -5.10711 5.33375 -35.9331 2.9662 0.944521 -9.3151e-010 -6.02991 0.287625 1.7207 1.52588e-005 3.8147e-006 -6.20578 -75.2786 -7.66915 -168.979 6.73249 3.8147e-006 1.77636e-015 -83.7818 -8.52775e-006 1.13137e-005 8.08522 3.8147e-006 -1.06581e-014 67.9997 9.71868e-007 5.33169e-007 8.97519 7.62939e-006 8.88179e-015 -4.38216 8.98019 -5.20444 1.58764 -0.234993 -0.295148 148.789 -6.22691 174.059 3.03847 7.6294e-006 0 -70.5416 1.76784e-007 2.56646e-006 1.65462 0.933655 1.02414 47.3354 42.5544 -30.4246 3.51775 -7.99361e-013 -1.52588e-005 -9.04937 1.02323e-005 2.97236e-006 1.4731 1.0106 -1.16707 34.8733 -22.2652 21.0553 3.94897 7.6294e-006 -7.62939e-006 -9.73901 -0.00275028 0.016081 1.07522 1.64227 0.0223627 26.4602 -4.91348 -3.83308 4.09654 -7.6294e-006 2.38419e-007 0.882397 -5.24016e-005 -0.00403372 2.04239 1.88274 9.53969e-007 65.1255 -5.26718 7.54795 1.42109e-014 7.6294e-006 6.20577 -68.5336 -2.50291 169.936 6.73249 7.6294e-006 -9.53674e-007 -89.7837 -2.34013e-007 -6.94185e-006 8.08521 7.10543e-015 0 117.084 7.75977e-006 1.56772e-005 8.97519 -7.62939e-006 -2.93099e-014 -61.6285 -11.3242 3.28889 1.65462 0.933723 -1.02418 29.5548 -48.2463 17.674 3.51775 5.72204e-006 7.62939e-006 -2.97123 -0.000470746 0.00872645 1.07522 1.6422 -0.0221229 23.1918 -1.10279 3.41488 4.09653 3.81469e-006 -1.90735e-006 1.90955 0.000115335 0.00349355 1.58763 -0.234939 0.295138 158.07 5.97712 -179.579 3.03848 -8.88178e-016 3.77476e-014 -61.0192 -2.91803e-006 1.29748e-005 1.4731 1.01057 1.1673 27.5909 17.1577 -7.90811 3.94896 -1.90735e-006 -1.77636e-015 -2.78402 0.000168566 -0.00348292 2.04238 1.88279 3.55916e-007 64.6257 11.4192 -9.64837 8.61718 -0.00684357 -4.44089e-016 6.32958 8.0494e-006 -1.83019e-005 0.267588 -6.1239 -7.49306 -71.2559 1.78844 147.087 14.7158 1.52588e-005 -1.90735e-006 39.4743 6.00913 9.21088 19.0859 9.53674e-007 1.90735e-006 -21.43 4.11061 10.098 2.68913 -0.270637 0.785278 -51.3205 6.94625 28.9789 21.1082 -7.62939e-006 -1.52588e-005 -1.3329 -2.46405 18.9838 27.6419 -1.52588e-005 7.62939e-006 -2.63938 -0.0523195 34.5787 0.267583 -6.12389 7.49304 -71.2559 -1.78844 -147.087 14.7158 1.52588e-005 -5.72204e-006 39.4743 -6.00912 -9.21088 19.0859 -6.32383e-013 3.8147e-006 -21.43 -4.1106 -10.098 2.68911 -0.270645 -0.785271 -51.3205 -6.94623 -28.9789 21.1082 1.20792e-012 -3.8147e-006 -1.33291 2.46404 -18.9837 27.642 -8.66862e-013 1.52588e-005 -2.63938 0.0523176 -34.5787 7.59943 -1.43241 -9.31323e-010 -0.729246 -1.77883 0.338445 3.64921 -0.00225449 -1.86265e-009 4.21009 -0.115662 -1.57097 3.32335 -0.00287628 4.44089e-015 8.59574 -0.133589 3.7773 4.63258 -0.573494 2.0425e-011 -13.2257 0.558708 1.4977 1.0539 2.23561 -1.09936e-009 -100.247 -0.013855 -179.971 
-1.22763 46.7803 6.36199e-006 98.451 -87.5646 135.71 0 0 0 -89.9948 15.3597 -89.995 -5.50162 -0.620551 2.01014e-009 -0.25147 0.129517 179.946 10.228 -0.119789 3.6889 20.159 81.8195 -40.2565 15.0421 -2.38419e-007 3.55271e-015 4.63116 -5.23769 -36.5026 10.2278 -0.119778 -3.68915 -126.631 72.7749 108.024 15.0421 8.88179e-016 -1.06581e-014 -5.06041 5.31772 -35.8263 2.9705 0.930462 -9.31505e-010 -5.8866 0.302852 1.73852 1.52588e-005 3.8147e-006 -6.20578 -70.0977 -6.5754 -168.898 6.73249 3.8147e-006 0 -75.4977 2.88998e-006 9.91571e-006 8.08522 3.8147e-006 -8.88178e-015 64.2523 9.11089e-007 5.84045e-007 8.97519 7.62939e-006 1.06581e-014 -4.69134 8.90018 -3.68334 1.58764 -0.234993 -0.295148 146.71 -6.1569 174.305 3.03847 7.6294e-006 -7.10543e-015 -69.8123 -8.45341e-006 5.66683e-006 1.65462 0.933655 1.02414 49.1574 41.6592 -31.6007 3.51775 -8.02913e-013 -1.52588e-005 -9.47888 1.03609e-005 2.09006e-006 1.4731 1.0106 -1.16707 34.8205 -22.2107 20.9785 3.94897 7.6294e-006 -7.62939e-006 -10.1726 -0.00298631 0.0166974 1.07522 1.64227 0.0223627 27.6731 -4.98923 -3.72064 4.09654 -7.6294e-006 2.38419e-007 -0.155512 1.70398e-005 -0.00269529 2.04239 1.88274 9.53929e-007 68.1504 -4.45056 6.75001 1.42109e-014 7.6294e-006 6.20577 -68.2867 -3.07266 170.048 6.73249 7.6294e-006 -9.53674e-007 -88.5904 -3.85167e-007 -6.93549e-006 8.08521 3.55271e-015 1.77636e-015 113.324 7.09787e-006 1.60143e-005 8.97519 -7.62939e-006 -2.4869e-014 -56.6972 -11.0687 2.71857 1.65462 0.933723 -1.02418 31.2278 -47.7585 18.8876 3.51775 5.72204e-006 7.62939e-006 -2.2803 -1.78808e-005 1.80509e-006 1.07522 1.6422 -0.0221229 23.2667 -1.09572 3.42175 4.09653 3.81469e-006 -1.90735e-006 4.33403 -1.08323e-006 -4.10855e-007 1.58763 -0.234939 0.295138 153.956 5.66656 -179.267 3.03848 -8.88178e-016 2.79776e-014 -60.3532 5.10262e-006 8.22672e-006 1.4731 1.01057 1.1673 27.6458 17.1498 -7.94442 3.94896 -1.90735e-006 -1.77636e-015 -1.99007 8.04235e-005 -0.00233816 2.04238 1.88279 3.55371e-007 66.0123 10.6778 -9.24308 8.61718 -0.00684357 -2.22045e-016 5.69222 8.25249e-006 -1.82113e-005 0.267593 -6.12389 -7.49306 -69.8471 0.790446 142.301 14.7158 1.52588e-005 -1.90735e-006 42.0528 5.83361 8.78175 19.0859 9.53674e-007 1.90735e-006 -24.5097 1.58605 13.8761 2.68913 -0.270637 0.785278 -52.032 8.22045 28.9857 21.1082 -7.62939e-006 -1.52588e-005 -1.32926 -2.4494 19.4096 27.6419 -1.52588e-005 7.62939e-006 -2.64082 -0.0516852 34.2162 0.267591 -6.12389 7.49303 -69.8471 -0.790458 -142.301 14.7158 1.52588e-005 -5.72204e-006 42.0528 -5.83361 -8.78175 19.0859 -6.25277e-013 3.8147e-006 -24.5097 -1.58605 -13.8761 2.68911 -0.270645 -0.785271 -52.032 -8.22045 -28.9857 21.1082 1.40687e-012 -3.8147e-006 -1.32926 2.4494 -19.4095 27.642 -5.32907e-013 1.52588e-005 -2.64082 0.0516801 -34.2162 7.59943 -1.43241 -9.31322e-010 0.0163025 -1.79408 0.371001 3.64921 -0.00225449 -1.86265e-009 2.74436 -0.0764031 -1.59369 3.32335 -0.00287628 4.66294e-015 9.03017 -0.108431 3.82603 4.63258 -0.573494 2.14357e-011 -11.6311 0.556388 1.37142 1.0539 2.23561 -1.10298e-009 -100.225 -0.0129547 -179.971 
